<svg width="240" height="38" viewBox="0 0 240 38" fill="none" xmlns="http://www.w3.org/2000/svg">
<path d="M6.55078 8.40234H2.38086L1.44434 11H0.0908203L3.8916 1.04688H5.04004L8.84766 11H7.50098L6.55078 8.40234ZM2.77734 7.32227H6.16113L4.46582 2.66699L2.77734 7.32227ZM11.1855 3.60352L11.2266 4.5332C11.7917 3.82227 12.5299 3.4668 13.4414 3.4668C15.0046 3.4668 15.793 4.34863 15.8066 6.1123V11H14.542V6.10547C14.5374 5.57227 14.4144 5.17806 14.1729 4.92285C13.9359 4.66764 13.5645 4.54004 13.0586 4.54004C12.6484 4.54004 12.2884 4.64941 11.9785 4.86816C11.6686 5.08691 11.4271 5.37402 11.2539 5.72949V11H9.98926V3.60352H11.1855ZM22.5605 11H21.2959V3.60352H22.5605V11ZM21.1934 1.6416C21.1934 1.43652 21.2549 1.26335 21.3779 1.12207C21.5055 0.980794 21.6924 0.910156 21.9385 0.910156C22.1846 0.910156 22.3714 0.980794 22.499 1.12207C22.6266 1.26335 22.6904 1.43652 22.6904 1.6416C22.6904 1.84668 22.6266 2.01758 22.499 2.1543C22.3714 2.29102 22.1846 2.35938 21.9385 2.35938C21.6924 2.35938 21.5055 2.29102 21.3779 2.1543C21.2549 2.01758 21.1934 1.84668 21.1934 1.6416ZM25.7871 3.60352L25.8281 4.5332C26.3932 3.82227 27.1315 3.4668 28.043 3.4668C29.6061 3.4668 30.3945 4.34863 30.4082 6.1123V11H29.1436V6.10547C29.139 5.57227 29.016 5.17806 28.7744 4.92285C28.5374 4.66764 28.166 4.54004 27.6602 4.54004C27.25 4.54004 26.89 4.64941 26.5801 4.86816C26.2702 5.08691 26.0286 5.37402 25.8555 5.72949V11H24.5908V3.60352H25.7871ZM36.6221 9.03809C36.6221 8.69629 36.4922 8.43197 36.2324 8.24512C35.9772 8.05371 35.5283 7.88965 34.8857 7.75293C34.2477 7.61621 33.7396 7.45215 33.3613 7.26074C32.9876 7.06934 32.7096 6.84147 32.5273 6.57715C32.3496 6.31283 32.2607 5.99837 32.2607 5.63379C32.2607 5.02767 32.516 4.51497 33.0264 4.0957C33.5413 3.67643 34.1976 3.4668 34.9951 3.4668C35.8337 3.4668 36.5127 3.68327 37.0322 4.11621C37.5563 4.54915 37.8184 5.10286 37.8184 5.77734H36.5469C36.5469 5.43099 36.3988 5.13249 36.1025 4.88184C35.8109 4.63118 35.4417 4.50586 34.9951 4.50586C34.5348 4.50586 34.1748 4.60612 33.915 4.80664C33.6553 5.00716 33.5254 5.26921 33.5254 5.59277C33.5254 5.89811 33.6462 6.12826 33.8877 6.2832C34.1292 6.43815 34.5645 6.58626 35.1934 6.72754C35.8268 6.86882 36.3395 7.03743 36.7314 7.2334C37.1234 7.42936 37.4128 7.66634 37.5996 7.94434C37.791 8.21777 37.8867 8.55273 37.8867 8.94922C37.8867 9.61003 37.6224 10.141 37.0938 10.542C36.5651 10.9385 35.8792 11.1367 35.0361 11.1367C34.4437 11.1367 33.9196 11.0319 33.4639 10.8223C33.0081 10.6126 32.6504 10.321 32.3906 9.94727C32.1354 9.56901 32.0078 9.16113 32.0078 8.72363H33.2725C33.2952 9.14746 33.4639 9.4847 33.7783 9.73535C34.0973 9.98145 34.5166 10.1045 35.0361 10.1045C35.5146 10.1045 35.8975 10.0088 36.1846 9.81738C36.4762 9.62142 36.6221 9.36165 36.6221 9.03809ZM41.25 1.8125V3.60352H42.6309V4.58105H41.25V9.16797C41.25 9.46419 41.3115 9.6875 41.4346 9.83789C41.5576 9.98372 41.7673 10.0566 42.0635 10.0566C42.2093 10.0566 42.4098 10.0293 42.665 9.97461V11C42.3324 11.0911 42.0088 11.1367 41.6943 11.1367C41.1292 11.1367 40.7031 10.9658 40.416 10.624C40.1289 10.2822 39.9854 9.79688 39.9854 9.16797V4.58105H38.6387V3.60352H39.9854V1.8125H41.25ZM47.6895 4.73828C47.498 4.70638 47.2907 4.69043 47.0674 4.69043C46.238 4.69043 45.6751 5.04362 45.3789 5.75V11H44.1143V3.60352H45.3447L45.3652 4.45801C45.7799 3.7972 46.3678 3.4668 47.1289 3.4668C47.375 3.4668 47.5618 3.4987 47.6895 3.5625V4.73828ZM53.4248 10.2686C52.9326 10.8473 52.2103 11.1367 51.2578 11.1367C50.4694 11.1367 49.8678 10.9089 49.4531 10.4531C49.043 9.99284 48.8356 9.3138 48.8311 8.41602V3.60352H50.0957V8.38184C50.0957 9.50293 50.5514 10.0635 51.4629 10.0635C52.429 10.0635 53.0716 9.70345 53.3906 8.9834V3.60352H54.6553V11H53.4521L53.4248 10.2686ZM59.5498 10.1045C60.001 10.1045 60.3952 9.96777 60.7324 9.69434C61.0697 9.4209 61.2565 9.0791 61.293 8.66895H62.4893C62.4665 9.09277 62.3206 9.49609 62.0518 9.87891C61.7829 10.2617 61.4229 10.5671 60.9717 10.7949C60.5251 11.0228 60.0511 11.1367 59.5498 11.1367C58.5426 11.1367 57.7406 10.8018 57.1436 10.1318C56.5511 9.45736 56.2549 8.53678 56.2549 7.37012V7.1582C56.2549 6.43815 56.387 5.79785 56.6514 5.2373C56.9157 4.67676 57.2939 4.24154 57.7861 3.93164C58.2829 3.62174 58.8685 3.4668 59.543 3.4668C60.3724 3.4668 61.0605 3.71517 61.6074 4.21191C62.1589 4.70866 62.4528 5.35352 62.4893 6.14648H61.293C61.2565 5.66797 61.0742 5.27604 60.7461 4.9707C60.4225 4.66081 60.0215 4.50586 59.543 4.50586C58.9004 4.50586 58.4014 4.73828 58.0459 5.20312C57.695 5.66341 57.5195 6.33105 57.5195 7.20605V7.44531C57.5195 8.29753 57.695 8.95378 58.0459 9.41406C58.3968 9.87435 58.8981 10.1045 59.5498 10.1045ZM65.627 1.8125V3.60352H67.0078V4.58105H65.627V9.16797C65.627 9.46419 65.6885 9.6875 65.8115 9.83789C65.9346 9.98372 66.1442 10.0566 66.4404 10.0566C66.5863 10.0566 66.7868 10.0293 67.042 9.97461V11C66.7093 11.0911 66.3857 11.1367 66.0713 11.1367C65.5062 11.1367 65.0801 10.9658 64.793 10.624C64.5059 10.2822 64.3623 9.79688 64.3623 9.16797V4.58105H63.0156V3.60352H64.3623V1.8125H65.627ZM68.0195 7.2334C68.0195 6.50879 68.1608 5.8571 68.4434 5.27832C68.7305 4.69954 69.127 4.25293 69.6328 3.93848C70.1432 3.62402 70.7243 3.4668 71.376 3.4668C72.3831 3.4668 73.1966 3.81543 73.8164 4.5127C74.4408 5.20996 74.7529 6.13737 74.7529 7.29492V7.38379C74.7529 8.10384 74.6139 8.75098 74.3359 9.3252C74.0625 9.89486 73.6683 10.3392 73.1533 10.6582C72.6429 10.9772 72.055 11.1367 71.3896 11.1367C70.387 11.1367 69.5736 10.7881 68.9492 10.0908C68.3294 9.39355 68.0195 8.4707 68.0195 7.32227V7.2334ZM69.291 7.38379C69.291 8.2041 69.4801 8.86263 69.8584 9.35938C70.2412 9.85612 70.7516 10.1045 71.3896 10.1045C72.0322 10.1045 72.5426 9.85384 72.9209 9.35254C73.2992 8.84668 73.4883 8.1403 73.4883 7.2334C73.4883 6.4222 73.2946 5.76595 72.9072 5.26465C72.5244 4.75879 72.014 4.50586 71.376 4.50586C70.7516 4.50586 70.248 4.75423 69.8652 5.25098C69.4824 5.74772 69.291 6.45866 69.291 7.38379ZM79.9141 4.73828C79.7227 4.70638 79.5153 4.69043 79.292 4.69043C78.4626 4.69043 77.8997 5.04362 77.6035 5.75V11H76.3389V3.60352H77.5693L77.5898 4.45801C78.0046 3.7972 78.5924 3.4668 79.3535 3.4668C79.5996 3.4668 79.7865 3.4987 79.9141 3.5625V4.73828ZM85.1777 11V4.58105H84.0088V3.60352H85.1777V2.84473C85.1777 2.05176 85.3896 1.4388 85.8135 1.00586C86.2373 0.572917 86.8366 0.356445 87.6113 0.356445C87.903 0.356445 88.1924 0.395182 88.4795 0.472656L88.4111 1.49805C88.1969 1.45703 87.9691 1.43652 87.7275 1.43652C87.3174 1.43652 87.0007 1.55729 86.7773 1.79883C86.554 2.03581 86.4424 2.3776 86.4424 2.82422V3.60352H88.0215V4.58105H86.4424V11H85.1777ZM89.0879 7.2334C89.0879 6.50879 89.2292 5.8571 89.5117 5.27832C89.7988 4.69954 90.1953 4.25293 90.7012 3.93848C91.2116 3.62402 91.7926 3.4668 92.4443 3.4668C93.4515 3.4668 94.265 3.81543 94.8848 4.5127C95.5091 5.20996 95.8213 6.13737 95.8213 7.29492V7.38379C95.8213 8.10384 95.6823 8.75098 95.4043 9.3252C95.1309 9.89486 94.7367 10.3392 94.2217 10.6582C93.7113 10.9772 93.1234 11.1367 92.458 11.1367C91.4554 11.1367 90.6419 10.7881 90.0176 10.0908C89.3978 9.39355 89.0879 8.4707 89.0879 7.32227V7.2334ZM90.3594 7.38379C90.3594 8.2041 90.5485 8.86263 90.9268 9.35938C91.3096 9.85612 91.82 10.1045 92.458 10.1045C93.1006 10.1045 93.611 9.85384 93.9893 9.35254C94.3675 8.84668 94.5566 8.1403 94.5566 7.2334C94.5566 6.4222 94.363 5.76595 93.9756 5.26465C93.5928 4.75879 93.0824 4.50586 92.4443 4.50586C91.82 4.50586 91.3164 4.75423 90.9336 5.25098C90.5508 5.74772 90.3594 6.45866 90.3594 7.38379ZM100.374 10.1045C100.825 10.1045 101.219 9.96777 101.557 9.69434C101.894 9.4209 102.081 9.0791 102.117 8.66895H103.313C103.291 9.09277 103.145 9.49609 102.876 9.87891C102.607 10.2617 102.247 10.5671 101.796 10.7949C101.349 11.0228 100.875 11.1367 100.374 11.1367C99.3669 11.1367 98.5648 10.8018 97.9678 10.1318C97.3753 9.45736 97.0791 8.53678 97.0791 7.37012V7.1582C97.0791 6.43815 97.2113 5.79785 97.4756 5.2373C97.7399 4.67676 98.1182 4.24154 98.6104 3.93164C99.1071 3.62174 99.6927 3.4668 100.367 3.4668C101.197 3.4668 101.885 3.71517 102.432 4.21191C102.983 4.70866 103.277 5.35352 103.313 6.14648H102.117C102.081 5.66797 101.898 5.27604 101.57 4.9707C101.247 4.66081 100.846 4.50586 100.367 4.50586C99.7246 4.50586 99.2256 4.73828 98.8701 5.20312C98.5192 5.66341 98.3438 6.33105 98.3438 7.20605V7.44531C98.3438 8.29753 98.5192 8.95378 98.8701 9.41406C99.221 9.87435 99.7223 10.1045 100.374 10.1045ZM109.302 10.2686C108.81 10.8473 108.087 11.1367 107.135 11.1367C106.346 11.1367 105.745 10.9089 105.33 10.4531C104.92 9.99284 104.713 9.3138 104.708 8.41602V3.60352H105.973V8.38184C105.973 9.50293 106.428 10.0635 107.34 10.0635C108.306 10.0635 108.949 9.70345 109.268 8.9834V3.60352H110.532V11H109.329L109.302 10.2686ZM116.767 9.03809C116.767 8.69629 116.637 8.43197 116.377 8.24512C116.122 8.05371 115.673 7.88965 115.03 7.75293C114.392 7.61621 113.884 7.45215 113.506 7.26074C113.132 7.06934 112.854 6.84147 112.672 6.57715C112.494 6.31283 112.405 5.99837 112.405 5.63379C112.405 5.02767 112.66 4.51497 113.171 4.0957C113.686 3.67643 114.342 3.4668 115.14 3.4668C115.978 3.4668 116.657 3.68327 117.177 4.11621C117.701 4.54915 117.963 5.10286 117.963 5.77734H116.691C116.691 5.43099 116.543 5.13249 116.247 4.88184C115.955 4.63118 115.586 4.50586 115.14 4.50586C114.679 4.50586 114.319 4.60612 114.06 4.80664C113.8 5.00716 113.67 5.26921 113.67 5.59277C113.67 5.89811 113.791 6.12826 114.032 6.2832C114.274 6.43815 114.709 6.58626 115.338 6.72754C115.971 6.86882 116.484 7.03743 116.876 7.2334C117.268 7.42936 117.557 7.66634 117.744 7.94434C117.936 8.21777 118.031 8.55273 118.031 8.94922C118.031 9.61003 117.767 10.141 117.238 10.542C116.71 10.9385 116.024 11.1367 115.181 11.1367C114.588 11.1367 114.064 11.0319 113.608 10.8223C113.153 10.6126 112.795 10.321 112.535 9.94727C112.28 9.56901 112.152 9.16113 112.152 8.72363H113.417C113.44 9.14746 113.608 9.4847 113.923 9.73535C114.242 9.98145 114.661 10.1045 115.181 10.1045C115.659 10.1045 116.042 10.0088 116.329 9.81738C116.621 9.62142 116.767 9.36165 116.767 9.03809ZM122.748 11.1367C121.745 11.1367 120.93 10.8086 120.301 10.1523C119.672 9.49154 119.357 8.6097 119.357 7.50684V7.27441C119.357 6.54069 119.496 5.88672 119.774 5.3125C120.057 4.73372 120.449 4.28255 120.95 3.95898C121.456 3.63086 122.003 3.4668 122.591 3.4668C123.552 3.4668 124.3 3.78353 124.833 4.41699C125.366 5.05046 125.633 5.95736 125.633 7.1377V7.66406H120.622C120.64 8.39323 120.852 8.9834 121.258 9.43457C121.668 9.88118 122.188 10.1045 122.816 10.1045C123.263 10.1045 123.641 10.0133 123.951 9.83105C124.261 9.64876 124.532 9.40723 124.765 9.10645L125.537 9.70801C124.917 10.6605 123.988 11.1367 122.748 11.1367ZM122.591 4.50586C122.08 4.50586 121.652 4.69271 121.306 5.06641C120.959 5.43555 120.745 5.95508 120.663 6.625H124.368V6.5293C124.332 5.88672 124.159 5.38997 123.849 5.03906C123.539 4.68359 123.119 4.50586 122.591 4.50586ZM126.795 7.24023C126.795 6.10547 127.064 5.19401 127.602 4.50586C128.139 3.81315 128.843 3.4668 129.714 3.4668C130.58 3.4668 131.266 3.76302 131.771 4.35547V0.5H133.036V11H131.874L131.812 10.207C131.307 10.8268 130.603 11.1367 129.7 11.1367C128.843 11.1367 128.144 10.7858 127.602 10.084C127.064 9.38216 126.795 8.46615 126.795 7.33594V7.24023ZM128.06 7.38379C128.06 8.22233 128.233 8.87858 128.579 9.35254C128.925 9.8265 129.404 10.0635 130.015 10.0635C130.817 10.0635 131.402 9.70345 131.771 8.9834V5.58594C131.393 4.88867 130.812 4.54004 130.028 4.54004C129.409 4.54004 128.925 4.7793 128.579 5.25781C128.233 5.73633 128.06 6.44499 128.06 7.38379ZM138.143 7.2334C138.143 6.50879 138.284 5.8571 138.566 5.27832C138.854 4.69954 139.25 4.25293 139.756 3.93848C140.266 3.62402 140.847 3.4668 141.499 3.4668C142.506 3.4668 143.32 3.81543 143.939 4.5127C144.564 5.20996 144.876 6.13737 144.876 7.29492V7.38379C144.876 8.10384 144.737 8.75098 144.459 9.3252C144.186 9.89486 143.791 10.3392 143.276 10.6582C142.766 10.9772 142.178 11.1367 141.513 11.1367C140.51 11.1367 139.697 10.7881 139.072 10.0908C138.452 9.39355 138.143 8.4707 138.143 7.32227V7.2334ZM139.414 7.38379C139.414 8.2041 139.603 8.86263 139.981 9.35938C140.364 9.85612 140.875 10.1045 141.513 10.1045C142.155 10.1045 142.666 9.85384 143.044 9.35254C143.422 8.84668 143.611 8.1403 143.611 7.2334C143.611 6.4222 143.418 5.76595 143.03 5.26465C142.647 4.75879 142.137 4.50586 141.499 4.50586C140.875 4.50586 140.371 4.75423 139.988 5.25098C139.605 5.74772 139.414 6.45866 139.414 7.38379ZM147.658 3.60352L147.699 4.5332C148.264 3.82227 149.003 3.4668 149.914 3.4668C151.477 3.4668 152.266 4.34863 152.279 6.1123V11H151.015V6.10547C151.01 5.57227 150.887 5.17806 150.646 4.92285C150.409 4.66764 150.037 4.54004 149.531 4.54004C149.121 4.54004 148.761 4.64941 148.451 4.86816C148.141 5.08691 147.9 5.37402 147.727 5.72949V11H146.462V3.60352H147.658ZM158.924 4.49902C159.484 3.81087 160.214 3.4668 161.111 3.4668C162.674 3.4668 163.463 4.34863 163.477 6.1123V11H162.212V6.10547C162.207 5.57227 162.084 5.17806 161.843 4.92285C161.606 4.66764 161.234 4.54004 160.729 4.54004C160.318 4.54004 159.958 4.64941 159.648 4.86816C159.339 5.08691 159.097 5.37402 158.924 5.72949V11H157.659V0.5H158.924V4.49902ZM168.439 11.1367C167.437 11.1367 166.621 10.8086 165.992 10.1523C165.363 9.49154 165.049 8.6097 165.049 7.50684V7.27441C165.049 6.54069 165.188 5.88672 165.466 5.3125C165.748 4.73372 166.14 4.28255 166.642 3.95898C167.147 3.63086 167.694 3.4668 168.282 3.4668C169.244 3.4668 169.991 3.78353 170.524 4.41699C171.058 5.05046 171.324 5.95736 171.324 7.1377V7.66406H166.313C166.332 8.39323 166.544 8.9834 166.949 9.43457C167.359 9.88118 167.879 10.1045 168.508 10.1045C168.954 10.1045 169.333 10.0133 169.643 9.83105C169.952 9.64876 170.224 9.40723 170.456 9.10645L171.229 9.70801C170.609 10.6605 169.679 11.1367 168.439 11.1367ZM168.282 4.50586C167.772 4.50586 167.343 4.69271 166.997 5.06641C166.651 5.43555 166.437 5.95508 166.354 6.625H170.06V6.5293C170.023 5.88672 169.85 5.38997 169.54 5.03906C169.23 4.68359 168.811 4.50586 168.282 4.50586ZM174.168 11H172.903V0.5H174.168V11ZM182.446 7.38379C182.446 8.50944 182.189 9.41634 181.674 10.1045C181.159 10.7926 180.462 11.1367 179.582 11.1367C178.684 11.1367 177.978 10.8519 177.463 10.2822V13.8438H176.198V3.60352H177.354L177.415 4.42383C177.93 3.78581 178.646 3.4668 179.562 3.4668C180.45 3.4668 181.152 3.80176 181.667 4.47168C182.187 5.1416 182.446 6.07357 182.446 7.26758V7.38379ZM181.182 7.24023C181.182 6.40625 181.004 5.74772 180.648 5.26465C180.293 4.78158 179.805 4.54004 179.186 4.54004C178.42 4.54004 177.846 4.87956 177.463 5.55859V9.09277C177.841 9.76725 178.42 10.1045 179.199 10.1045C179.805 10.1045 180.286 9.86523 180.642 9.38672C181.002 8.90365 181.182 8.18815 181.182 7.24023ZM185.434 11H184.169V3.60352H185.434V11ZM184.066 1.6416C184.066 1.43652 184.128 1.26335 184.251 1.12207C184.379 0.980794 184.565 0.910156 184.812 0.910156C185.058 0.910156 185.244 0.980794 185.372 1.12207C185.5 1.26335 185.563 1.43652 185.563 1.6416C185.563 1.84668 185.5 2.01758 185.372 2.1543C185.244 2.29102 185.058 2.35938 184.812 2.35938C184.565 2.35938 184.379 2.29102 184.251 2.1543C184.128 2.01758 184.066 1.84668 184.066 1.6416ZM188.66 3.60352L188.701 4.5332C189.266 3.82227 190.005 3.4668 190.916 3.4668C192.479 3.4668 193.268 4.34863 193.281 6.1123V11H192.017V6.10547C192.012 5.57227 191.889 5.17806 191.647 4.92285C191.41 4.66764 191.039 4.54004 190.533 4.54004C190.123 4.54004 189.763 4.64941 189.453 4.86816C189.143 5.08691 188.902 5.37402 188.729 5.72949V11H187.464V3.60352H188.66ZM194.888 7.24023C194.888 6.08724 195.154 5.17122 195.688 4.49219C196.221 3.80859 196.927 3.4668 197.807 3.4668C198.709 3.4668 199.413 3.78581 199.919 4.42383L199.98 3.60352H201.136V10.8223C201.136 11.7793 200.851 12.5335 200.281 13.085C199.716 13.6364 198.955 13.9121 197.998 13.9121C197.465 13.9121 196.943 13.7982 196.433 13.5703C195.922 13.3424 195.533 13.0303 195.264 12.6338L195.92 11.875C196.462 12.5449 197.125 12.8799 197.909 12.8799C198.524 12.8799 199.003 12.7067 199.345 12.3604C199.691 12.014 199.864 11.5264 199.864 10.8975V10.2617C199.358 10.8451 198.668 11.1367 197.793 11.1367C196.927 11.1367 196.225 10.7881 195.688 10.0908C195.154 9.39355 194.888 8.44336 194.888 7.24023ZM196.159 7.38379C196.159 8.21777 196.33 8.87402 196.672 9.35254C197.014 9.8265 197.492 10.0635 198.107 10.0635C198.905 10.0635 199.491 9.70117 199.864 8.97656V5.59961C199.477 4.89323 198.896 4.54004 198.121 4.54004C197.506 4.54004 197.025 4.7793 196.679 5.25781C196.332 5.73633 196.159 6.44499 196.159 7.38379ZM212.771 7.38379C212.771 8.50944 212.513 9.41634 211.998 10.1045C211.483 10.7926 210.786 11.1367 209.906 11.1367C209.008 11.1367 208.302 10.8519 207.787 10.2822V13.8438H206.522V3.60352H207.678L207.739 4.42383C208.254 3.78581 208.97 3.4668 209.886 3.4668C210.774 3.4668 211.476 3.80176 211.991 4.47168C212.511 5.1416 212.771 6.07357 212.771 7.26758V7.38379ZM211.506 7.24023C211.506 6.40625 211.328 5.74772 210.973 5.26465C210.617 4.78158 210.13 4.54004 209.51 4.54004C208.744 4.54004 208.17 4.87956 207.787 5.55859V9.09277C208.165 9.76725 208.744 10.1045 209.523 10.1045C210.13 10.1045 210.61 9.86523 210.966 9.38672C211.326 8.90365 211.506 8.18815 211.506 7.24023ZM214.049 7.2334C214.049 6.50879 214.19 5.8571 214.473 5.27832C214.76 4.69954 215.156 4.25293 215.662 3.93848C216.173 3.62402 216.754 3.4668 217.405 3.4668C218.412 3.4668 219.226 3.81543 219.846 4.5127C220.47 5.20996 220.782 6.13737 220.782 7.29492V7.38379C220.782 8.10384 220.643 8.75098 220.365 9.3252C220.092 9.89486 219.698 10.3392 219.183 10.6582C218.672 10.9772 218.084 11.1367 217.419 11.1367C216.416 11.1367 215.603 10.7881 214.979 10.0908C214.359 9.39355 214.049 8.4707 214.049 7.32227V7.2334ZM215.32 7.38379C215.32 8.2041 215.509 8.86263 215.888 9.35938C216.271 9.85612 216.781 10.1045 217.419 10.1045C218.062 10.1045 218.572 9.85384 218.95 9.35254C219.328 8.84668 219.518 8.1403 219.518 7.2334C219.518 6.4222 219.324 5.76595 218.937 5.26465C218.554 4.75879 218.043 4.50586 217.405 4.50586C216.781 4.50586 216.277 4.75423 215.895 5.25098C215.512 5.74772 215.32 6.45866 215.32 7.38379ZM228.616 7.38379C228.616 8.50944 228.359 9.41634 227.844 10.1045C227.329 10.7926 226.632 11.1367 225.752 11.1367C224.854 11.1367 224.148 10.8519 223.633 10.2822V13.8438H222.368V3.60352H223.523L223.585 4.42383C224.1 3.78581 224.815 3.4668 225.731 3.4668C226.62 3.4668 227.322 3.80176 227.837 4.47168C228.356 5.1416 228.616 6.07357 228.616 7.26758V7.38379ZM227.352 7.24023C227.352 6.40625 227.174 5.74772 226.818 5.26465C226.463 4.78158 225.975 4.54004 225.355 4.54004C224.59 4.54004 224.016 4.87956 223.633 5.55859V9.09277C224.011 9.76725 224.59 10.1045 225.369 10.1045C225.975 10.1045 226.456 9.86523 226.812 9.38672C227.172 8.90365 227.352 8.18815 227.352 7.24023ZM231.604 11H230.339V0.5H231.604V11ZM236.703 11.1367C235.701 11.1367 234.885 10.8086 234.256 10.1523C233.627 9.49154 233.312 8.6097 233.312 7.50684V7.27441C233.312 6.54069 233.451 5.88672 233.729 5.3125C234.012 4.73372 234.404 4.28255 234.905 3.95898C235.411 3.63086 235.958 3.4668 236.546 3.4668C237.507 3.4668 238.255 3.78353 238.788 4.41699C239.321 5.05046 239.588 5.95736 239.588 7.1377V7.66406H234.577C234.595 8.39323 234.807 8.9834 235.213 9.43457C235.623 9.88118 236.143 10.1045 236.771 10.1045C237.218 10.1045 237.596 10.0133 237.906 9.83105C238.216 9.64876 238.487 9.40723 238.72 9.10645L239.492 9.70801C238.872 10.6605 237.943 11.1367 236.703 11.1367ZM236.546 4.50586C236.035 4.50586 235.607 4.69271 235.261 5.06641C234.914 5.43555 234.7 5.95508 234.618 6.625H238.323V6.5293C238.287 5.88672 238.114 5.38997 237.804 5.03906C237.494 4.68359 237.075 4.50586 236.546 4.50586ZM41.8379 33.0381C41.8379 32.6963 41.708 32.432 41.4482 32.2451C41.193 32.0537 40.7441 31.8896 40.1016 31.7529C39.4635 31.6162 38.9554 31.4521 38.5771 31.2607C38.2035 31.0693 37.9255 30.8415 37.7432 30.5771C37.5654 30.3128 37.4766 29.9984 37.4766 29.6338C37.4766 29.0277 37.7318 28.515 38.2422 28.0957C38.7572 27.6764 39.4134 27.4668 40.2109 27.4668C41.0495 27.4668 41.7285 27.6833 42.248 28.1162C42.7721 28.5492 43.0342 29.1029 43.0342 29.7773H41.7627C41.7627 29.431 41.6146 29.1325 41.3184 28.8818C41.0267 28.6312 40.6576 28.5059 40.2109 28.5059C39.7507 28.5059 39.3906 28.6061 39.1309 28.8066C38.8711 29.0072 38.7412 29.2692 38.7412 29.5928C38.7412 29.8981 38.862 30.1283 39.1035 30.2832C39.3451 30.4382 39.7803 30.5863 40.4092 30.7275C41.0426 30.8688 41.5553 31.0374 41.9473 31.2334C42.3392 31.4294 42.6286 31.6663 42.8154 31.9443C43.0068 32.2178 43.1025 32.5527 43.1025 32.9492C43.1025 33.61 42.8382 34.141 42.3096 34.542C41.7809 34.9385 41.0951 35.1367 40.252 35.1367C39.6595 35.1367 39.1354 35.0319 38.6797 34.8223C38.224 34.6126 37.8662 34.321 37.6064 33.9473C37.3512 33.569 37.2236 33.1611 37.2236 32.7236H38.4883C38.5111 33.1475 38.6797 33.4847 38.9941 33.7354C39.3132 33.9814 39.7324 34.1045 40.252 34.1045C40.7305 34.1045 41.1133 34.0088 41.4004 33.8174C41.6921 33.6214 41.8379 33.3617 41.8379 33.0381ZM46.4658 25.8125V27.6035H47.8467V28.5811H46.4658V33.168C46.4658 33.4642 46.5273 33.6875 46.6504 33.8379C46.7734 33.9837 46.9831 34.0566 47.2793 34.0566C47.4251 34.0566 47.6257 34.0293 47.8809 33.9746V35C47.5482 35.0911 47.2246 35.1367 46.9102 35.1367C46.3451 35.1367 45.9189 34.9658 45.6318 34.624C45.3447 34.2822 45.2012 33.7969 45.2012 33.168V28.5811H43.8545V27.6035H45.2012V25.8125H46.4658ZM53.8965 35C53.8236 34.8542 53.7643 34.5944 53.7188 34.2207C53.1309 34.8314 52.429 35.1367 51.6133 35.1367C50.8841 35.1367 50.2848 34.9316 49.8154 34.5215C49.3506 34.1068 49.1182 33.5827 49.1182 32.9492C49.1182 32.179 49.4098 31.582 49.9932 31.1582C50.5811 30.7298 51.4059 30.5156 52.4678 30.5156H53.6982V29.9346C53.6982 29.4925 53.5661 29.1416 53.3018 28.8818C53.0374 28.6175 52.6478 28.4854 52.1328 28.4854C51.6816 28.4854 51.3034 28.5993 50.998 28.8271C50.6927 29.055 50.54 29.3307 50.54 29.6543H49.2686C49.2686 29.2852 49.3984 28.9297 49.6582 28.5879C49.9225 28.2415 50.278 27.9681 50.7246 27.7676C51.1758 27.5671 51.6702 27.4668 52.208 27.4668C53.0602 27.4668 53.7279 27.681 54.2109 28.1094C54.694 28.5332 54.9447 29.1188 54.9629 29.8662V33.2705C54.9629 33.9495 55.0495 34.4896 55.2227 34.8906V35H53.8965ZM51.7979 34.0361C52.1943 34.0361 52.5703 33.9336 52.9258 33.7285C53.2812 33.5234 53.5387 33.2568 53.6982 32.9287V31.4111H52.707C51.1576 31.4111 50.3828 31.8646 50.3828 32.7715C50.3828 33.168 50.515 33.4779 50.7793 33.7012C51.0436 33.9245 51.3831 34.0361 51.7979 34.0361ZM60.5205 28.7383C60.3291 28.7064 60.1217 28.6904 59.8984 28.6904C59.069 28.6904 58.5062 29.0436 58.21 29.75V35H56.9453V27.6035H58.1758L58.1963 28.458C58.611 27.7972 59.1989 27.4668 59.96 27.4668C60.2061 27.4668 60.3929 27.4987 60.5205 27.5625V28.7383ZM63.7471 25.8125V27.6035H65.1279V28.5811H63.7471V33.168C63.7471 33.4642 63.8086 33.6875 63.9316 33.8379C64.0547 33.9837 64.2643 34.0566 64.5605 34.0566C64.7064 34.0566 64.9069 34.0293 65.1621 33.9746V35C64.8294 35.0911 64.5059 35.1367 64.1914 35.1367C63.6263 35.1367 63.2002 34.9658 62.9131 34.624C62.626 34.2822 62.4824 33.7969 62.4824 33.168V28.5811H61.1357V27.6035H62.4824V25.8125H63.7471ZM76.332 31.3838C76.332 32.5094 76.0745 33.4163 75.5596 34.1045C75.0446 34.7926 74.3473 35.1367 73.4678 35.1367C72.57 35.1367 71.8636 34.8519 71.3486 34.2822V37.8438H70.084V27.6035H71.2393L71.3008 28.4238C71.8158 27.7858 72.5312 27.4668 73.4473 27.4668C74.3359 27.4668 75.0378 27.8018 75.5527 28.4717C76.0723 29.1416 76.332 30.0736 76.332 31.2676V31.3838ZM75.0674 31.2402C75.0674 30.4062 74.8896 29.7477 74.5342 29.2646C74.1787 28.7816 73.6911 28.54 73.0713 28.54C72.3057 28.54 71.7314 28.8796 71.3486 29.5586V33.0928C71.7269 33.7673 72.3057 34.1045 73.085 34.1045C73.6911 34.1045 74.1719 33.8652 74.5273 33.3867C74.8874 32.9036 75.0674 32.1882 75.0674 31.2402ZM81.5205 28.7383C81.3291 28.7064 81.1217 28.6904 80.8984 28.6904C80.069 28.6904 79.5062 29.0436 79.21 29.75V35H77.9453V27.6035H79.1758L79.1963 28.458C79.611 27.7972 80.1989 27.4668 80.96 27.4668C81.2061 27.4668 81.3929 27.4987 81.5205 27.5625V28.7383ZM82.2178 31.2334C82.2178 30.5088 82.359 29.8571 82.6416 29.2783C82.9287 28.6995 83.3252 28.2529 83.8311 27.9385C84.3415 27.624 84.9225 27.4668 85.5742 27.4668C86.5814 27.4668 87.3949 27.8154 88.0146 28.5127C88.639 29.21 88.9512 30.1374 88.9512 31.2949V31.3838C88.9512 32.1038 88.8122 32.751 88.5342 33.3252C88.2607 33.8949 87.8665 34.3392 87.3516 34.6582C86.8411 34.9772 86.2533 35.1367 85.5879 35.1367C84.5853 35.1367 83.7718 34.7881 83.1475 34.0908C82.5277 33.3936 82.2178 32.4707 82.2178 31.3223V31.2334ZM83.4893 31.3838C83.4893 32.2041 83.6784 32.8626 84.0566 33.3594C84.4395 33.8561 84.9499 34.1045 85.5879 34.1045C86.2305 34.1045 86.7409 33.8538 87.1191 33.3525C87.4974 32.8467 87.6865 32.1403 87.6865 31.2334C87.6865 30.4222 87.4928 29.766 87.1055 29.2646C86.7227 28.7588 86.2122 28.5059 85.5742 28.5059C84.9499 28.5059 84.4463 28.7542 84.0635 29.251C83.6807 29.7477 83.4893 30.4587 83.4893 31.3838ZM90.2363 31.2402C90.2363 30.0872 90.5029 29.1712 91.0361 28.4922C91.5693 27.8086 92.2757 27.4668 93.1553 27.4668C94.0576 27.4668 94.7617 27.7858 95.2676 28.4238L95.3291 27.6035H96.4844V34.8223C96.4844 35.7793 96.1995 36.5335 95.6299 37.085C95.0648 37.6364 94.3037 37.9121 93.3467 37.9121C92.8135 37.9121 92.2917 37.7982 91.7812 37.5703C91.2708 37.3424 90.8812 37.0303 90.6123 36.6338L91.2686 35.875C91.8109 36.5449 92.474 36.8799 93.2578 36.8799C93.873 36.8799 94.3516 36.7067 94.6934 36.3604C95.0397 36.014 95.2129 35.5264 95.2129 34.8975V34.2617C94.707 34.8451 94.0166 35.1367 93.1416 35.1367C92.2757 35.1367 91.5739 34.7881 91.0361 34.0908C90.5029 33.3936 90.2363 32.4434 90.2363 31.2402ZM91.5078 31.3838C91.5078 32.2178 91.6787 32.874 92.0205 33.3525C92.3623 33.8265 92.8408 34.0635 93.4561 34.0635C94.2536 34.0635 94.8392 33.7012 95.2129 32.9766V29.5996C94.8255 28.8932 94.2445 28.54 93.4697 28.54C92.8545 28.54 92.3737 28.7793 92.0273 29.2578C91.681 29.7363 91.5078 30.445 91.5078 31.3838ZM101.974 28.7383C101.782 28.7064 101.575 28.6904 101.352 28.6904C100.522 28.6904 99.9593 29.0436 99.6631 29.75V35H98.3984V27.6035H99.6289L99.6494 28.458C100.064 27.7972 100.652 27.4668 101.413 27.4668C101.659 27.4668 101.846 27.4987 101.974 27.5625V28.7383ZM107.436 35C107.363 34.8542 107.303 34.5944 107.258 34.2207C106.67 34.8314 105.968 35.1367 105.152 35.1367C104.423 35.1367 103.824 34.9316 103.354 34.5215C102.89 34.1068 102.657 33.5827 102.657 32.9492C102.657 32.179 102.949 31.582 103.532 31.1582C104.12 30.7298 104.945 30.5156 106.007 30.5156H107.237V29.9346C107.237 29.4925 107.105 29.1416 106.841 28.8818C106.576 28.6175 106.187 28.4854 105.672 28.4854C105.221 28.4854 104.842 28.5993 104.537 28.8271C104.232 29.055 104.079 29.3307 104.079 29.6543H102.808C102.808 29.2852 102.938 28.9297 103.197 28.5879C103.462 28.2415 103.817 27.9681 104.264 27.7676C104.715 27.5671 105.209 27.4668 105.747 27.4668C106.599 27.4668 107.267 27.681 107.75 28.1094C108.233 28.5332 108.484 29.1188 108.502 29.8662V33.2705C108.502 33.9495 108.589 34.4896 108.762 34.8906V35H107.436ZM105.337 34.0361C105.733 34.0361 106.109 33.9336 106.465 33.7285C106.82 33.5234 107.078 33.2568 107.237 32.9287V31.4111H106.246C104.697 31.4111 103.922 31.8646 103.922 32.7715C103.922 33.168 104.054 33.4779 104.318 33.7012C104.583 33.9245 104.922 34.0361 105.337 34.0361ZM111.674 27.6035L111.708 28.4238C112.25 27.7858 112.982 27.4668 113.902 27.4668C114.937 27.4668 115.641 27.8633 116.015 28.6562C116.261 28.3008 116.58 28.0137 116.972 27.7949C117.368 27.5762 117.835 27.4668 118.373 27.4668C119.995 27.4668 120.82 28.3258 120.848 30.0439V35H119.583V30.1191C119.583 29.5905 119.462 29.1963 119.221 28.9365C118.979 28.6722 118.574 28.54 118.004 28.54C117.535 28.54 117.145 28.6813 116.835 28.9639C116.525 29.2419 116.345 29.6178 116.295 30.0918V35H115.023V30.1533C115.023 29.0778 114.497 28.54 113.444 28.54C112.615 28.54 112.048 28.8932 111.742 29.5996V35H110.478V27.6035H111.674ZM123.951 27.6035L123.985 28.4238C124.528 27.7858 125.259 27.4668 126.18 27.4668C127.214 27.4668 127.918 27.8633 128.292 28.6562C128.538 28.3008 128.857 28.0137 129.249 27.7949C129.646 27.5762 130.113 27.4668 130.65 27.4668C132.273 27.4668 133.098 28.3258 133.125 30.0439V35H131.86V30.1191C131.86 29.5905 131.74 29.1963 131.498 28.9365C131.257 28.6722 130.851 28.54 130.281 28.54C129.812 28.54 129.422 28.6813 129.112 28.9639C128.802 29.2419 128.622 29.6178 128.572 30.0918V35H127.301V30.1533C127.301 29.0778 126.774 28.54 125.722 28.54C124.892 28.54 124.325 28.8932 124.02 29.5996V35H122.755V27.6035H123.951ZM136.413 35H135.148V27.6035H136.413V35ZM135.046 25.6416C135.046 25.4365 135.107 25.2633 135.23 25.1221C135.358 24.9808 135.545 24.9102 135.791 24.9102C136.037 24.9102 136.224 24.9808 136.352 25.1221C136.479 25.2633 136.543 25.4365 136.543 25.6416C136.543 25.8467 136.479 26.0176 136.352 26.1543C136.224 26.291 136.037 26.3594 135.791 26.3594C135.545 26.3594 135.358 26.291 135.23 26.1543C135.107 26.0176 135.046 25.8467 135.046 25.6416ZM139.64 27.6035L139.681 28.5332C140.246 27.8223 140.984 27.4668 141.896 27.4668C143.459 27.4668 144.247 28.3486 144.261 30.1123V35H142.996V30.1055C142.992 29.5723 142.868 29.1781 142.627 28.9229C142.39 28.6676 142.019 28.54 141.513 28.54C141.103 28.54 140.743 28.6494 140.433 28.8682C140.123 29.0869 139.881 29.374 139.708 29.7295V35H138.443V27.6035H139.64ZM145.867 31.2402C145.867 30.0872 146.134 29.1712 146.667 28.4922C147.2 27.8086 147.907 27.4668 148.786 27.4668C149.688 27.4668 150.393 27.7858 150.898 28.4238L150.96 27.6035H152.115V34.8223C152.115 35.7793 151.83 36.5335 151.261 37.085C150.696 37.6364 149.935 37.9121 148.978 37.9121C148.444 37.9121 147.923 37.7982 147.412 37.5703C146.902 37.3424 146.512 37.0303 146.243 36.6338L146.899 35.875C147.442 36.5449 148.105 36.8799 148.889 36.8799C149.504 36.8799 149.982 36.7067 150.324 36.3604C150.671 36.014 150.844 35.5264 150.844 34.8975V34.2617C150.338 34.8451 149.647 35.1367 148.772 35.1367C147.907 35.1367 147.205 34.7881 146.667 34.0908C146.134 33.3936 145.867 32.4434 145.867 31.2402ZM147.139 31.3838C147.139 32.2178 147.31 32.874 147.651 33.3525C147.993 33.8265 148.472 34.0635 149.087 34.0635C149.884 34.0635 150.47 33.7012 150.844 32.9766V29.5996C150.456 28.8932 149.875 28.54 149.101 28.54C148.485 28.54 148.005 28.7793 147.658 29.2578C147.312 29.7363 147.139 30.445 147.139 31.3838ZM158.124 35V28.5811H156.955V27.6035H158.124V26.8447C158.124 26.0518 158.336 25.4388 158.76 25.0059C159.184 24.5729 159.783 24.3564 160.558 24.3564C160.849 24.3564 161.139 24.3952 161.426 24.4727L161.357 25.498C161.143 25.457 160.915 25.4365 160.674 25.4365C160.264 25.4365 159.947 25.5573 159.724 25.7988C159.5 26.0358 159.389 26.3776 159.389 26.8242V27.6035H160.968V28.5811H159.389V35H158.124ZM162.034 31.2334C162.034 30.5088 162.175 29.8571 162.458 29.2783C162.745 28.6995 163.142 28.2529 163.647 27.9385C164.158 27.624 164.739 27.4668 165.391 27.4668C166.398 27.4668 167.211 27.8154 167.831 28.5127C168.455 29.21 168.768 30.1374 168.768 31.2949V31.3838C168.768 32.1038 168.629 32.751 168.351 33.3252C168.077 33.8949 167.683 34.3392 167.168 34.6582C166.658 34.9772 166.07 35.1367 165.404 35.1367C164.402 35.1367 163.588 34.7881 162.964 34.0908C162.344 33.3936 162.034 32.4707 162.034 31.3223V31.2334ZM163.306 31.3838C163.306 32.2041 163.495 32.8626 163.873 33.3594C164.256 33.8561 164.766 34.1045 165.404 34.1045C166.047 34.1045 166.557 33.8538 166.936 33.3525C167.314 32.8467 167.503 32.1403 167.503 31.2334C167.503 30.4222 167.309 29.766 166.922 29.2646C166.539 28.7588 166.029 28.5059 165.391 28.5059C164.766 28.5059 164.263 28.7542 163.88 29.251C163.497 29.7477 163.306 30.4587 163.306 31.3838ZM173.929 28.7383C173.737 28.7064 173.53 28.6904 173.307 28.6904C172.477 28.6904 171.914 29.0436 171.618 29.75V35H170.354V27.6035H171.584L171.604 28.458C172.019 27.7972 172.607 27.4668 173.368 27.4668C173.614 27.4668 173.801 27.4987 173.929 27.5625V28.7383ZM185.119 33.2568L186.541 27.6035H187.806L185.652 35H184.627L182.829 29.3945L181.079 35H180.054L177.907 27.6035H179.165L180.621 33.1406L182.344 27.6035H183.362L185.119 33.2568ZM192.167 35.1367C191.164 35.1367 190.349 34.8086 189.72 34.1523C189.091 33.4915 188.776 32.6097 188.776 31.5068V31.2744C188.776 30.5407 188.915 29.8867 189.193 29.3125C189.476 28.7337 189.868 28.2826 190.369 27.959C190.875 27.6309 191.422 27.4668 192.01 27.4668C192.971 27.4668 193.719 27.7835 194.252 28.417C194.785 29.0505 195.052 29.9574 195.052 31.1377V31.6641H190.041C190.059 32.3932 190.271 32.9834 190.677 33.4346C191.087 33.8812 191.606 34.1045 192.235 34.1045C192.682 34.1045 193.06 34.0133 193.37 33.8311C193.68 33.6488 193.951 33.4072 194.184 33.1064L194.956 33.708C194.336 34.6605 193.407 35.1367 192.167 35.1367ZM192.01 28.5059C191.499 28.5059 191.071 28.6927 190.725 29.0664C190.378 29.4355 190.164 29.9551 190.082 30.625H193.787V30.5293C193.751 29.8867 193.577 29.39 193.268 29.0391C192.958 28.6836 192.538 28.5059 192.01 28.5059ZM202.783 31.3838C202.783 32.514 202.523 33.4232 202.004 34.1113C201.484 34.7949 200.787 35.1367 199.912 35.1367C198.978 35.1367 198.256 34.8063 197.745 34.1455L197.684 35H196.521V24.5H197.786V28.417C198.297 27.7835 199.001 27.4668 199.898 27.4668C200.796 27.4668 201.5 27.8063 202.011 28.4854C202.526 29.1644 202.783 30.0941 202.783 31.2744V31.3838ZM201.519 31.2402C201.519 30.3789 201.352 29.7135 201.02 29.2441C200.687 28.7747 200.208 28.54 199.584 28.54C198.75 28.54 198.151 28.9274 197.786 29.7021V32.9014C198.174 33.6761 198.777 34.0635 199.598 34.0635C200.204 34.0635 200.675 33.8288 201.013 33.3594C201.35 32.89 201.519 32.1836 201.519 31.2402Z" fill="#E1E1E6"/>
</svg>
