<svg width="72" height="16" viewBox="0 0 72 16" fill="none" xmlns="http://www.w3.org/2000/svg">
<path d="M3.05469 1.5V3.54688H4.63281V4.66406H3.05469V9.90625C3.05469 10.2448 3.125 10.5 3.26562 10.6719C3.40625 10.8385 3.64583 10.9219 3.98438 10.9219C4.15104 10.9219 4.38021 10.8906 4.67188 10.8281V12C4.29167 12.1042 3.92188 12.1562 3.5625 12.1562C2.91667 12.1562 2.42969 11.9609 2.10156 11.5703C1.77344 11.1797 1.60938 10.625 1.60938 9.90625V4.66406H0.0703125V3.54688H1.60938V1.5H3.05469ZM7.89844 12H6.45312V3.54688H7.89844V12ZM6.33594 1.30469C6.33594 1.07031 6.40625 0.872396 6.54688 0.710938C6.69271 0.549479 6.90625 0.46875 7.1875 0.46875C7.46875 0.46875 7.68229 0.549479 7.82812 0.710938C7.97396 0.872396 8.04688 1.07031 8.04688 1.30469C8.04688 1.53906 7.97396 1.73438 7.82812 1.89062C7.68229 2.04688 7.46875 2.125 7.1875 2.125C6.90625 2.125 6.69271 2.04688 6.54688 1.89062C6.40625 1.73438 6.33594 1.53906 6.33594 1.30469ZM15.4375 12C15.3542 11.8333 15.2865 11.5365 15.2344 11.1094C14.5625 11.8073 13.7604 12.1562 12.8281 12.1562C11.9948 12.1562 11.3099 11.9219 10.7734 11.4531C10.2422 10.9792 9.97656 10.3802 9.97656 9.65625C9.97656 8.77604 10.3099 8.09375 10.9766 7.60938C11.6484 7.11979 12.5911 6.875 13.8047 6.875H15.2109V6.21094C15.2109 5.70573 15.0599 5.30469 14.7578 5.00781C14.4557 4.70573 14.0104 4.55469 13.4219 4.55469C12.9062 4.55469 12.474 4.6849 12.125 4.94531C11.776 5.20573 11.6016 5.52083 11.6016 5.89062H10.1484C10.1484 5.46875 10.2969 5.0625 10.5938 4.67188C10.8958 4.27604 11.3021 3.96354 11.8125 3.73438C12.3281 3.50521 12.8932 3.39062 13.5078 3.39062C14.4818 3.39062 15.2448 3.63542 15.7969 4.125C16.349 4.60938 16.6354 5.27865 16.6562 6.13281V10.0234C16.6562 10.7995 16.7552 11.4167 16.9531 11.875V12H15.4375ZM13.0391 10.8984C13.4922 10.8984 13.9219 10.7812 14.3281 10.5469C14.7344 10.3125 15.0286 10.0078 15.2109 9.63281V7.89844H14.0781C12.3073 7.89844 11.4219 8.41667 11.4219 9.45312C11.4219 9.90625 11.5729 10.2604 11.875 10.5156C12.1771 10.7708 12.5651 10.8984 13.0391 10.8984ZM18.5781 7.70312C18.5781 6.38542 18.8828 5.33854 19.4922 4.5625C20.1016 3.78125 20.9089 3.39062 21.9141 3.39062C22.9453 3.39062 23.75 3.75521 24.3281 4.48438L24.3984 3.54688H25.7188V11.7969C25.7188 12.8906 25.3932 13.7526 24.7422 14.3828C24.0964 15.013 23.2266 15.3281 22.1328 15.3281C21.5234 15.3281 20.9271 15.1979 20.3438 14.9375C19.7604 14.6771 19.3151 14.3203 19.0078 13.8672L19.7578 13C20.3776 13.7656 21.1354 14.1484 22.0312 14.1484C22.7344 14.1484 23.2812 13.9505 23.6719 13.5547C24.0677 13.1589 24.2656 12.6016 24.2656 11.8828V11.1562C23.6875 11.8229 22.8984 12.1562 21.8984 12.1562C20.9089 12.1562 20.1068 11.7578 19.4922 10.9609C18.8828 10.1641 18.5781 9.07812 18.5781 7.70312ZM20.0312 7.86719C20.0312 8.82031 20.2266 9.57031 20.6172 10.1172C21.0078 10.6589 21.5547 10.9297 22.2578 10.9297C23.1693 10.9297 23.8385 10.5156 24.2656 9.6875V5.82812C23.8229 5.02083 23.1589 4.61719 22.2734 4.61719C21.5703 4.61719 21.0208 4.89062 20.625 5.4375C20.2292 5.98438 20.0312 6.79427 20.0312 7.86719ZM27.5234 7.69531C27.5234 6.86719 27.6849 6.1224 28.0078 5.46094C28.3359 4.79948 28.7891 4.28906 29.3672 3.92969C29.9505 3.57031 30.6146 3.39062 31.3594 3.39062C32.5104 3.39062 33.4401 3.78906 34.1484 4.58594C34.862 5.38281 35.2188 6.44271 35.2188 7.76562V7.86719C35.2188 8.6901 35.0599 9.42969 34.7422 10.0859C34.4297 10.737 33.9792 11.2448 33.3906 11.6094C32.8073 11.974 32.1354 12.1562 31.375 12.1562C30.2292 12.1562 29.2995 11.7578 28.5859 10.9609C27.8776 10.1641 27.5234 9.10938 27.5234 7.79688V7.69531ZM28.9766 7.86719C28.9766 8.80469 29.1927 9.55729 29.625 10.125C30.0625 10.6927 30.6458 10.9766 31.375 10.9766C32.1094 10.9766 32.6927 10.6901 33.125 10.1172C33.5573 9.53906 33.7734 8.73177 33.7734 7.69531C33.7734 6.76823 33.5521 6.01823 33.1094 5.44531C32.6719 4.86719 32.0885 4.57812 31.3594 4.57812C30.6458 4.57812 30.0703 4.86198 29.6328 5.42969C29.1953 5.9974 28.9766 6.8099 28.9766 7.86719ZM43.125 13.1797H35.9688V12H43.125V13.1797ZM45.8203 12H44.375V0H45.8203V12ZM53.3594 11.1641C52.7969 11.8255 51.9714 12.1562 50.8828 12.1562C49.9818 12.1562 49.2943 11.8958 48.8203 11.375C48.3516 10.849 48.1146 10.0729 48.1094 9.04688V3.54688H49.5547V9.00781C49.5547 10.2891 50.0755 10.9297 51.1172 10.9297C52.2214 10.9297 52.9557 10.5182 53.3203 9.69531V3.54688H54.7656V12H53.3906L53.3594 11.1641ZM60.3594 10.9766C60.875 10.9766 61.3255 10.8203 61.7109 10.5078C62.0964 10.1953 62.3099 9.80469 62.3516 9.33594H63.7188C63.6927 9.82031 63.526 10.2812 63.2188 10.7188C62.9115 11.1562 62.5 11.5052 61.9844 11.7656C61.474 12.026 60.9323 12.1562 60.3594 12.1562C59.2083 12.1562 58.2917 11.7734 57.6094 11.0078C56.9323 10.237 56.5938 9.1849 56.5938 7.85156V7.60938C56.5938 6.78646 56.7448 6.05469 57.0469 5.41406C57.349 4.77344 57.7812 4.27604 58.3438 3.92188C58.9115 3.56771 59.5807 3.39062 60.3516 3.39062C61.2995 3.39062 62.0859 3.67448 62.7109 4.24219C63.3411 4.8099 63.6771 5.54688 63.7188 6.45312H62.3516C62.3099 5.90625 62.1016 5.45833 61.7266 5.10938C61.3568 4.75521 60.8984 4.57812 60.3516 4.57812C59.6172 4.57812 59.0469 4.84375 58.6406 5.375C58.2396 5.90104 58.0391 6.66406 58.0391 7.66406V7.9375C58.0391 8.91146 58.2396 9.66146 58.6406 10.1875C59.0417 10.7135 59.6146 10.9766 60.3594 10.9766ZM66.7891 4.57031C67.4297 3.78385 68.263 3.39062 69.2891 3.39062C71.0755 3.39062 71.9766 4.39844 71.9922 6.41406V12H70.5469V6.40625C70.5417 5.79688 70.401 5.34635 70.125 5.05469C69.8542 4.76302 69.4297 4.61719 68.8516 4.61719C68.3828 4.61719 67.9714 4.74219 67.6172 4.99219C67.263 5.24219 66.987 5.57031 66.7891 5.97656V12H65.3438V0H66.7891V4.57031Z" fill="#C4C4CC"/>
</svg>
